<svg width="600" height="600" viewBox="0 0 600 600" xmlns="http://www.w3.org/2000/svg">
<defs>
  <linearGradient id="ewg1" x1="0%" y1="0%" x2="100%" y2="100%">
    <stop offset="0%" stop-color="#FFFBF0"/><stop offset="40%" stop-color="#E8C97A"/><stop offset="100%" stop-color="#8A6A2A"/>
  </linearGradient>
  <linearGradient id="ewg2" x1="100%" y1="0%" x2="0%" y2="100%">
    <stop offset="0%" stop-color="#FFFBF0"/><stop offset="100%" stop-color="#C9A84C"/>
  </linearGradient>
  <radialGradient id="ecg" cx="50%" cy="50%" r="50%">
    <stop offset="0%" stop-color="#FFFFFF"/><stop offset="100%" stop-color="#F5E6C0"/>
  </radialGradient>
</defs>
<g transform="translate(300,300)">
  <circle cx="0" cy="0" r="220" stroke="#C9A84C" stroke-width="3" fill="none" opacity="0.45"/>
  <circle cx="0" cy="0" r="190" stroke="#B8CAFF" stroke-width="2" fill="none" opacity="0.3" stroke-dasharray="10 18"/>
  <path d="M0,0 C-54,-33 -102,-57 -204,-57 C-177,-22 -141,0 -54,0 Z" fill="url(#ewg1)" opacity="0.92"/>
  <path d="M0,0 C-40,-28 -123,-69 -180,-69 C-153,-40 -97,-13 -63,0 Z" fill="url(#ewg1)" opacity="0.55"/>
  <path d="M0,0 C54,-33 102,-57 204,-57 C177,-22 141,0 54,0 Z" fill="url(#ewg2)" opacity="0.92"/>
  <path d="M0,0 C40,-28 123,-69 180,-69 C153,-40 97,-13 63,0 Z" fill="url(#ewg2)" opacity="0.55"/>
  <ellipse cx="0" cy="0" rx="33" ry="61" fill="url(#ewg1)"/>
  <path d="M-16,-54 L0,-117 L16,-54 Z" fill="url(#ewg1)"/>
  <path d="M-8,-54 L0,-117 L8,-54 Z" fill="#FFFFFF"/>
  <path d="M-16,54 L0,108 L16,54 Z" fill="url(#ewg1)" opacity="0.75"/>
  <circle cx="0" cy="0" r="24" fill="url(#ecg)"/>
  <circle cx="0" cy="0" r="12" fill="#FFFFFF"/>
  <path d="M0,-220 L15,-190 L0,-160 L-15,-190 Z" fill="#C9A84C"/>
  <path d="M0,220 L15,190 L0,160 L-15,190 Z" fill="#C9A84C"/>
  <path d="M-220,0 L-190,15 L-160,0 L-190,-15 Z" fill="#C9A84C"/>
  <path d="M220,0 L190,15 L160,0 L190,-15 Z" fill="#C9A84C"/>
</g>
</svg>
